{"glyphs":{"0":{"ha":1667,"x_min":278,"x_max":1389,"o":"m 555 278 l 555 555 l 1111 555 l 1111 278 l 555 278 m 278 555 l 278 1389 l 555 1389 l 555 555 l 278 555 m 1111 555 l 1111 1389 l 1389 1389 l 1389 555 l 1111 555 m 555 1389 l 555 1667 l 1111 1667 l 1111 1389 l 555 1389 z "},"1":{"ha":1111,"x_min":278,"x_max":833,"o":"m 555 278 l 555 1111 l 278 1111 l 278 1389 l 555 1389 l 555 1667 l 833 1667 l 833 278 l 555 278 z "},"2":{"ha":1667,"x_min":278,"x_max":1389,"o":"m 278 278 l 278 555 l 555 555 l 555 833 l 833 833 l 833 555 l 1389 555 l 1389 278 l 278 278 m 833 833 l 833 1111 l 1111 1111 l 1111 833 l 833 833 m 278 1111 l 278 1389 l 555 1389 l 555 1111 l 278 1111 m 1111 1111 l 1111 1389 l 1389 1389 l 1389 1111 l 1111 1111 m 555 1389 l 555 1667 l 1111 1667 l 1111 1389 l 555 1389 z "},"3":{"ha":1667,"x_min":278,"x_max":1389,"o":"m 555 278 l 555 555 l 1111 555 l 1111 278 l 555 278 m 278 555 l 278 833 l 555 833 l 555 555 l 278 555 m 1111 555 l 1111 833 l 1389 833 l 1389 555 l 1111 555 m 833 833 l 833 1111 l 1111 1111 l 1111 833 l 833 833 m 278 1111 l 278 1389 l 555 1389 l 555 1111 l 278 1111 m 1111 1111 l 1111 1389 l 1389 1389 l 1389 1111 l 1111 1111 m 555 1389 l 555 1667 l 1111 1667 l 1111 1389 l 555 1389 z "},"4":{"ha":1667,"x_min":278,"x_max":1389,"o":"m 278 1111 l 278 1667 l 555 1667 l 555 1111 l 278 1111 m 1111 278 l 1111 833 l 555 833 l 555 1111 l 1111 1111 l 1111 1667 l 1389 1667 l 1389 278 l 1111 278 z "},"5":{"ha":1667,"x_min":278,"x_max":1389,"o":"m 278 278 l 278 555 l 1111 555 l 1111 278 l 278 278 m 1111 555 l 1111 833 l 1389 833 l 1389 555 l 1111 555 m 278 833 l 278 1667 l 1389 1667 l 1389 1389 l 555 1389 l 555 1111 l 1111 1111 l 1111 833 l 278 833 z "},"6":{"ha":1667,"x_min":278,"x_max":1389,"o":"m 555 278 l 555 555 l 1111 555 l 1111 278 l 555 278 m 1111 555 l 1111 833 l 1389 833 l 1389 555 l 1111 555 m 278 555 l 278 1389 l 555 1389 l 555 1111 l 1111 1111 l 1111 833 l 555 833 l 555 555 l 278 555 m 555 1389 l 555 1667 l 1389 1667 l 1389 1389 l 555 1389 z "},"7":{"ha":1667,"x_min":278,"x_max":1389,"o":"m 555 278 l 555 833 l 833 833 l 833 278 l 555 278 m 833 833 l 833 1111 l 1111 1111 l 1111 833 l 833 833 m 1111 1111 l 1111 1389 l 278 1389 l 278 1667 l 1389 1667 l 1389 1111 l 1111 1111 z "},"8":{"ha":1667,"x_min":278,"x_max":1389,"o":"m 555 278 l 555 555 l 1111 555 l 1111 278 l 555 278 m 278 555 l 278 833 l 555 833 l 555 555 l 278 555 m 1111 555 l 1111 833 l 1389 833 l 1389 555 l 1111 555 m 555 833 l 555 1111 l 1111 1111 l 1111 833 l 555 833 m 278 1111 l 278 1389 l 555 1389 l 555 1111 l 278 1111 m 1111 1111 l 1111 1389 l 1389 1389 l 1389 1111 l 1111 1111 m 555 1389 l 555 1667 l 1111 1667 l 1111 1389 l 555 1389 z "},"9":{"ha":1667,"x_min":278,"x_max":1389,"o":"m 278 1111 l 278 1389 l 555 1389 l 555 1111 l 278 1111 m 1111 278 l 1111 833 l 555 833 l 555 1111 l 1111 1111 l 1111 1389 l 555 1389 l 555 1667 l 1389 1667 l 1389 278 l 1111 278 z "}," ":{"ha":1784,"x_min":0,"x_max":0,"o":""},"!":{"ha":833,"x_min":278,"x_max":555,"o":"m 278 278 l 278 555 l 555 555 l 555 278 l 278 278 m 278 833 l 278 1667 l 555 1667 l 555 833 l 278 833 z "},"\"":{"ha":1389,"x_min":278,"x_max":1111,"o":"m 278 1389 l 278 1944 l 555 1944 l 555 1389 l 278 1389 m 833 1389 l 833 1944 l 1111 1944 l 1111 1389 l 833 1389 z "},"#":{"ha":1944,"x_min":278,"x_max":1667,"o":"m 1111 555 l 1111 1111 l 833 1111 l 833 555 l 1111 555 m 555 0 l 555 278 l 278 278 l 278 555 l 555 555 l 555 1111 l 278 1111 l 278 1389 l 555 1389 l 555 1667 l 833 1667 l 833 1389 l 1111 1389 l 1111 1667 l 1389 1667 l 1389 1389 l 1667 1389 l 1667 1111 l 1389 1111 l 1389 555 l 1667 555 l 1667 278 l 1389 278 l 1389 0 l 1111 0 l 1111 278 l 833 278 l 833 0 l 555 0 z "},"$":{"ha":1944,"x_min":278,"x_max":1667,"o":"m 833 0 l 833 278 l 278 278 l 278 555 l 1389 555 l 1389 278 l 1111 278 l 1111 0 l 833 0 m 1389 555 l 1389 833 l 1667 833 l 1667 555 l 1389 555 m 555 833 l 555 1111 l 1389 1111 l 1389 833 l 555 833 m 278 1111 l 278 1389 l 555 1389 l 555 1111 l 278 1111 m 555 1389 l 555 1667 l 833 1667 l 833 1944 l 1111 1944 l 1111 1667 l 1667 1667 l 1667 1389 l 555 1389 z "},"%":{"ha":2777,"x_min":0,"x_max":2500,"o":"m 555 0 l 555 278 l 833 278 l 833 0 l 555 0 m 1944 0 l 1944 278 l 2222 278 l 2222 0 l 1944 0 m 833 278 l 833 555 l 1111 555 l 1111 278 l 833 278 m 1667 278 l 1667 555 l 1944 555 l 1944 278 l 1667 278 m 2222 278 l 2222 555 l 2500 555 l 2500 278 l 2222 278 m 278 555 l 278 833 l 555 833 l 555 555 l 278 555 m 1111 555 l 1111 833 l 1389 833 l 1389 555 l 1111 555 m 1944 555 l 1944 833 l 2222 833 l 2222 555 l 1944 555 m 0 833 l 0 1111 l 278 1111 l 278 833 l 0 833 m 555 833 l 555 1111 l 833 1111 l 833 833 l 555 833 m 1389 833 l 1389 1111 l 1667 1111 l 1667 833 l 1389 833 m 278 1111 l 278 1389 l 555 1389 l 555 1111 l 278 1111 m 1667 1111 l 1667 1389 l 1944 1389 l 1944 1111 l 1667 1111 z "},"&":{"ha":1944,"x_min":278,"x_max":1667,"o":"m 833 0 l 833 278 l 555 278 l 555 555 l 1667 555 l 1667 278 l 1111 278 l 1111 0 l 833 0 m 278 555 l 278 833 l 555 833 l 555 555 l 278 555 m 555 833 l 555 1111 l 1111 1111 l 1111 833 l 555 833 m 278 1111 l 278 1389 l 555 1389 l 555 1111 l 278 1111 m 555 1389 l 555 1667 l 833 1667 l 833 1944 l 1111 1944 l 1111 1667 l 1667 1667 l 1667 1389 l 555 1389 z "},"'":{"ha":833,"x_min":278,"x_max":555,"o":"m 278 1389 l 278 1944 l 555 1944 l 555 1389 l 278 1389 z "},"(":{"ha":1111,"x_min":278,"x_max":833,"o":"m 555 0 l 555 278 l 833 278 l 833 0 l 555 0 m 278 278 l 278 1667 l 555 1667 l 555 278 l 278 278 m 555 1667 l 555 1944 l 833 1944 l 833 1667 l 555 1667 z "},")":{"ha":1111,"x_min":278,"x_max":833,"o":"m 278 0 l 278 278 l 555 278 l 555 0 l 278 0 m 555 278 l 555 1667 l 833 1667 l 833 278 l 555 278 m 278 1667 l 278 1944 l 555 1944 l 555 1667 l 278 1667 z "},"*":{"ha":1389,"x_min":278,"x_max":1111,"o":"m 555 1111 l 555 1389 l 278 1389 l 278 1667 l 555 1667 l 555 1944 l 833 1944 l 833 1667 l 1111 1667 l 1111 1389 l 833 1389 l 833 1111 l 555 1111 z "},"+":{"ha":1944,"x_min":278,"x_max":1667,"o":"m 833 278 l 833 833 l 278 833 l 278 1111 l 833 1111 l 833 1667 l 1111 1667 l 1111 1111 l 1667 1111 l 1667 833 l 1111 833 l 1111 278 l 833 278 z "},",":{"ha":833,"x_min":0,"x_max":555,"o":"m 0 0 l 0 278 l 278 278 l 278 0 l 0 0 m 278 278 l 278 555 l 555 555 l 555 278 l 278 278 z "},"-":{"ha":1944,"x_min":278,"x_max":1667,"o":"m 278 833 l 278 1111 l 1667 1111 l 1667 833 l 278 833 z "},".":{"ha":833,"x_min":278,"x_max":555,"o":"m 278 278 l 278 555 l 555 555 l 555 278 l 278 278 z "},"/":{"ha":1389,"x_min":278,"x_max":1111,"o":"m 278 278 l 278 555 l 555 555 l 555 278 l 278 278 m 555 555 l 555 1389 l 833 1389 l 833 555 l 555 555 m 833 1389 l 833 1667 l 1111 1667 l 1111 1389 l 833 1389 z "},":":{"ha":833,"x_min":278,"x_max":555,"o":"m 278 278 l 278 555 l 555 555 l 555 278 l 278 278 m 278 1111 l 278 1389 l 555 1389 l 555 1111 l 278 1111 z "},";":{"ha":833,"x_min":0,"x_max":555,"o":"m 0 0 l 0 278 l 278 278 l 278 0 l 0 0 m 278 278 l 278 555 l 555 555 l 555 278 l 278 278 m 278 1111 l 278 1389 l 555 1389 l 555 1111 l 278 1111 z "},"=":{"ha":1944,"x_min":278,"x_max":1667,"o":"m 278 555 l 278 833 l 1667 833 l 1667 555 l 278 555 m 278 1111 l 278 1389 l 1667 1389 l 1667 1111 l 278 1111 z "},"?":{"ha":1944,"x_min":278,"x_max":1667,"o":"m 555 278 l 555 555 l 833 555 l 833 278 l 555 278 m 555 833 l 555 1111 l 1389 1111 l 1389 833 l 555 833 m 1389 1111 l 1389 1389 l 1667 1389 l 1667 1111 l 1389 1111 m 278 1389 l 278 1667 l 1389 1667 l 1389 1389 l 278 1389 z "},"@":{"ha":2222,"x_min":0,"x_max":1944,"o":"m 1111 555 l 1111 833 l 833 833 l 833 555 l 1111 555 m 0 555 l 0 1389 l 278 1389 l 278 555 l 0 555 m 1111 1111 l 1111 1389 l 833 1389 l 833 1111 l 1111 1111 m 1667 555 l 1667 1389 l 1944 1389 l 1944 555 l 1667 555 m 278 278 l 278 555 l 555 555 l 555 1389 l 278 1389 l 278 1667 l 1667 1667 l 1667 1389 l 1389 1389 l 1389 555 l 1667 555 l 1667 278 l 278 278 z "},"A":{"ha":1944,"x_min":278,"x_max":1667,"o":"m 278 278 l 278 1389 l 555 1389 l 555 1111 l 1389 1111 l 1389 1389 l 1667 1389 l 1667 278 l 1389 278 l 1389 833 l 555 833 l 555 278 l 278 278 m 555 1389 l 555 1667 l 1389 1667 l 1389 1389 l 555 1389 z "},"B":{"ha":1944,"x_min":278,"x_max":1667,"o":"m 1389 555 l 1389 833 l 1667 833 l 1667 555 l 1389 555 m 1389 1111 l 1389 1389 l 1667 1389 l 1667 1111 l 1389 1111 m 278 278 l 278 1667 l 1389 1667 l 1389 1389 l 555 1389 l 555 1111 l 1389 1111 l 1389 833 l 555 833 l 555 555 l 1389 555 l 1389 278 l 278 278 z "},"C":{"ha":1944,"x_min":278,"x_max":1667,"o":"m 555 278 l 555 555 l 1667 555 l 1667 278 l 555 278 m 278 555 l 278 1389 l 555 1389 l 555 555 l 278 555 m 555 1389 l 555 1667 l 1667 1667 l 1667 1389 l 555 1389 z "},"D":{"ha":1944,"x_min":278,"x_max":1667,"o":"m 1389 555 l 1389 1389 l 1667 1389 l 1667 555 l 1389 555 m 278 278 l 278 1667 l 1389 1667 l 1389 1389 l 555 1389 l 555 555 l 1389 555 l 1389 278 l 278 278 z "},"E":{"ha":1944,"x_min":278,"x_max":1667,"o":"m 278 278 l 278 1667 l 1667 1667 l 1667 1389 l 555 1389 l 555 1111 l 1111 1111 l 1111 833 l 555 833 l 555 555 l 1667 555 l 1667 278 l 278 278 z "},"F":{"ha":1944,"x_min":278,"x_max":1667,"o":"m 278 278 l 278 1667 l 1667 1667 l 1667 1389 l 555 1389 l 555 1111 l 1111 1111 l 1111 833 l 555 833 l 555 278 l 278 278 z "},"G":{"ha":1944,"x_min":278,"x_max":1667,"o":"m 555 278 l 555 555 l 1389 555 l 1389 833 l 1111 833 l 1111 1111 l 1667 1111 l 1667 278 l 555 278 m 278 555 l 278 1389 l 555 1389 l 555 555 l 278 555 m 555 1389 l 555 1667 l 1667 1667 l 1667 1389 l 555 1389 z "},"H":{"ha":1944,"x_min":278,"x_max":1667,"o":"m 278 278 l 278 1667 l 555 1667 l 555 1111 l 1389 1111 l 1389 1667 l 1667 1667 l 1667 278 l 1389 278 l 1389 833 l 555 833 l 555 278 l 278 278 z "},"I":{"ha":1944,"x_min":278,"x_max":1667,"o":"m 278 278 l 278 555 l 833 555 l 833 1389 l 278 1389 l 278 1667 l 1667 1667 l 1667 1389 l 1111 1389 l 1111 555 l 1667 555 l 1667 278 l 278 278 z "},"J":{"ha":1944,"x_min":278,"x_max":1667,"o":"m 278 278 l 278 833 l 555 833 l 555 555 l 833 555 l 833 278 l 278 278 m 833 555 l 833 1389 l 278 1389 l 278 1667 l 1667 1667 l 1667 1389 l 1111 1389 l 1111 555 l 833 555 z "},"K":{"ha":1944,"x_min":278,"x_max":1667,"o":"m 1389 278 l 1389 555 l 1667 555 l 1667 278 l 1389 278 m 1111 555 l 1111 833 l 1389 833 l 1389 555 l 1111 555 m 1111 1111 l 1111 1389 l 1389 1389 l 1389 1111 l 1111 1111 m 278 278 l 278 1667 l 555 1667 l 555 1111 l 1111 1111 l 1111 833 l 555 833 l 555 278 l 278 278 m 1389 1389 l 1389 1667 l 1667 1667 l 1667 1389 l 1389 1389 z "},"L":{"ha":1944,"x_min":278,"x_max":1667,"o":"m 278 278 l 278 1667 l 555 1667 l 555 555 l 1667 555 l 1667 278 l 278 278 z "},"M":{"ha":1944,"x_min":278,"x_max":1667,"o":"m 833 833 l 833 1111 l 1111 1111 l 1111 833 l 833 833 m 278 278 l 278 1667 l 555 1667 l 555 1389 l 833 1389 l 833 1111 l 555 1111 l 555 278 l 278 278 m 1389 278 l 1389 1111 l 1111 1111 l 1111 1389 l 1389 1389 l 1389 1667 l 1667 1667 l 1667 278 l 1389 278 z "},"N":{"ha":1944,"x_min":278,"x_max":1667,"o":"m 833 833 l 833 1111 l 1111 1111 l 1111 833 l 833 833 m 278 278 l 278 1667 l 555 1667 l 555 1389 l 833 1389 l 833 1111 l 555 1111 l 555 278 l 278 278 m 1389 278 l 1389 555 l 1111 555 l 1111 833 l 1389 833 l 1389 1667 l 1667 1667 l 1667 278 l 1389 278 z "},"O":{"ha":1944,"x_min":278,"x_max":1667,"o":"m 555 278 l 555 555 l 1389 555 l 1389 278 l 555 278 m 278 555 l 278 1389 l 555 1389 l 555 555 l 278 555 m 1389 555 l 1389 1389 l 1667 1389 l 1667 555 l 1389 555 m 555 1389 l 555 1667 l 1389 1667 l 1389 1389 l 555 1389 z "},"P":{"ha":1944,"x_min":278,"x_max":1667,"o":"m 1389 1111 l 1389 1389 l 1667 1389 l 1667 1111 l 1389 1111 m 278 278 l 278 1667 l 1389 1667 l 1389 1389 l 555 1389 l 555 1111 l 1389 1111 l 1389 833 l 555 833 l 555 278 l 278 278 z "},"Q":{"ha":2222,"x_min":278,"x_max":1944,"o":"m 278 555 l 278 1389 l 555 1389 l 555 555 l 278 555 m 555 278 l 555 555 l 1389 555 l 1389 1389 l 1667 1389 l 1667 555 l 1944 555 l 1944 278 l 555 278 m 555 1389 l 555 1667 l 1389 1667 l 1389 1389 l 555 1389 z "},"R":{"ha":1944,"x_min":278,"x_max":1667,"o":"m 1389 278 l 1389 833 l 1667 833 l 1667 278 l 1389 278 m 1389 1111 l 1389 1389 l 1667 1389 l 1667 1111 l 1389 1111 m 278 278 l 278 1667 l 1389 1667 l 1389 1389 l 555 1389 l 555 1111 l 1389 1111 l 1389 833 l 555 833 l 555 278 l 278 278 z "},"S":{"ha":1944,"x_min":278,"x_max":1667,"o":"m 278 278 l 278 555 l 1389 555 l 1389 278 l 278 278 m 1389 555 l 1389 833 l 1667 833 l 1667 555 l 1389 555 m 555 833 l 555 1111 l 1389 1111 l 1389 833 l 555 833 m 278 1111 l 278 1389 l 555 1389 l 555 1111 l 278 1111 m 555 1389 l 555 1667 l 1667 1667 l 1667 1389 l 555 1389 z "},"T":{"ha":1944,"x_min":278,"x_max":1667,"o":"m 833 278 l 833 1389 l 278 1389 l 278 1667 l 1667 1667 l 1667 1389 l 1111 1389 l 1111 278 l 833 278 z "},"U":{"ha":1944,"x_min":278,"x_max":1667,"o":"m 555 278 l 555 555 l 1389 555 l 1389 278 l 555 278 m 278 555 l 278 1667 l 555 1667 l 555 555 l 278 555 m 1389 555 l 1389 1667 l 1667 1667 l 1667 555 l 1389 555 z "},"V":{"ha":1944,"x_min":278,"x_max":1667,"o":"m 833 278 l 833 555 l 1111 555 l 1111 278 l 833 278 m 555 555 l 555 833 l 833 833 l 833 555 l 555 555 m 1111 555 l 1111 833 l 1389 833 l 1389 555 l 1111 555 m 278 833 l 278 1667 l 555 1667 l 555 833 l 278 833 m 1389 833 l 1389 1667 l 1667 1667 l 1667 833 l 1389 833 z "},"W":{"ha":2500,"x_min":278,"x_max":2222,"o":"m 833 278 l 833 555 l 1111 555 l 1111 278 l 833 278 m 1389 278 l 1389 555 l 1667 555 l 1667 278 l 1389 278 m 555 555 l 555 833 l 833 833 l 833 555 l 555 555 m 1667 555 l 1667 833 l 1944 833 l 1944 555 l 1667 555 m 1111 555 l 1111 1111 l 1389 1111 l 1389 555 l 1111 555 m 278 833 l 278 1667 l 555 1667 l 555 833 l 278 833 m 1944 833 l 1944 1667 l 2222 1667 l 2222 833 l 1944 833 z "},"X":{"ha":1944,"x_min":278,"x_max":1667,"o":"m 278 278 l 278 833 l 555 833 l 555 278 l 278 278 m 1389 278 l 1389 833 l 1667 833 l 1667 278 l 1389 278 m 555 833 l 555 1111 l 1389 1111 l 1389 833 l 555 833 m 278 1111 l 278 1667 l 555 1667 l 555 1111 l 278 1111 m 1389 1111 l 1389 1667 l 1667 1667 l 1667 1111 l 1389 1111 z "},"Y":{"ha":1944,"x_min":278,"x_max":1667,"o":"m 833 278 l 833 833 l 555 833 l 555 1111 l 1389 1111 l 1389 833 l 1111 833 l 1111 278 l 833 278 m 278 1111 l 278 1667 l 555 1667 l 555 1111 l 278 1111 m 1389 1111 l 1389 1667 l 1667 1667 l 1667 1111 l 1389 1111 z "},"Z":{"ha":1944,"x_min":278,"x_max":1667,"o":"m 278 278 l 278 555 l 555 555 l 555 833 l 833 833 l 833 555 l 1667 555 l 1667 278 l 278 278 m 833 833 l 833 1111 l 1111 1111 l 1111 833 l 833 833 m 1111 1111 l 1111 1389 l 278 1389 l 278 1667 l 1667 1667 l 1667 1389 l 1389 1389 l 1389 1111 l 1111 1111 z "},"[":{"ha":1111,"x_min":278,"x_max":833,"o":"m 278 0 l 278 1944 l 833 1944 l 833 1667 l 555 1667 l 555 278 l 833 278 l 833 0 l 278 0 z "},"\\":{"ha":1389,"x_min":278,"x_max":1111,"o":"m 833 278 l 833 555 l 1111 555 l 1111 278 l 833 278 m 555 555 l 555 1389 l 833 1389 l 833 555 l 555 555 m 278 1389 l 278 1667 l 555 1667 l 555 1389 l 278 1389 z "},"]":{"ha":1111,"x_min":278,"x_max":833,"o":"m 278 0 l 278 278 l 555 278 l 555 1667 l 278 1667 l 278 1944 l 833 1944 l 833 0 l 278 0 z "},"^":{"ha":1389,"x_min":278,"x_max":1111,"o":"m 278 1389 l 278 1667 l 555 1667 l 555 1389 l 278 1389 m 833 1389 l 833 1667 l 1111 1667 l 1111 1389 l 833 1389 m 555 1667 l 555 1944 l 833 1944 l 833 1667 l 555 1667 z "},"_":{"ha":1944,"x_min":278,"x_max":1667,"o":"m 278 0 l 278 278 l 1667 278 l 1667 0 l 278 0 z "},"`":{"ha":1111,"x_min":278,"x_max":833,"o":"m 555 1389 l 555 1667 l 833 1667 l 833 1389 l 555 1389 m 278 1667 l 278 1944 l 555 1944 l 555 1667 l 278 1667 z "},"a":{"ha":1944,"x_min":278,"x_max":1667,"o":"m 278 278 l 278 1389 l 555 1389 l 555 1111 l 1389 1111 l 1389 1389 l 1667 1389 l 1667 278 l 1389 278 l 1389 833 l 555 833 l 555 278 l 278 278 m 555 1389 l 555 1667 l 1389 1667 l 1389 1389 l 555 1389 z "},"b":{"ha":1944,"x_min":278,"x_max":1667,"o":"m 1389 555 l 1389 833 l 1667 833 l 1667 555 l 1389 555 m 1389 1111 l 1389 1389 l 1667 1389 l 1667 1111 l 1389 1111 m 278 278 l 278 1667 l 1389 1667 l 1389 1389 l 555 1389 l 555 1111 l 1389 1111 l 1389 833 l 555 833 l 555 555 l 1389 555 l 1389 278 l 278 278 z "},"c":{"ha":1944,"x_min":278,"x_max":1667,"o":"m 555 278 l 555 555 l 1667 555 l 1667 278 l 555 278 m 278 555 l 278 1389 l 555 1389 l 555 555 l 278 555 m 555 1389 l 555 1667 l 1667 1667 l 1667 1389 l 555 1389 z "},"d":{"ha":1944,"x_min":278,"x_max":1667,"o":"m 1389 555 l 1389 1389 l 1667 1389 l 1667 555 l 1389 555 m 278 278 l 278 1667 l 1389 1667 l 1389 1389 l 555 1389 l 555 555 l 1389 555 l 1389 278 l 278 278 z "},"e":{"ha":1944,"x_min":278,"x_max":1667,"o":"m 278 278 l 278 1667 l 1667 1667 l 1667 1389 l 555 1389 l 555 1111 l 1111 1111 l 1111 833 l 555 833 l 555 555 l 1667 555 l 1667 278 l 278 278 z "},"f":{"ha":1944,"x_min":278,"x_max":1667,"o":"m 278 278 l 278 1667 l 1667 1667 l 1667 1389 l 555 1389 l 555 1111 l 1111 1111 l 1111 833 l 555 833 l 555 278 l 278 278 z "},"g":{"ha":1944,"x_min":278,"x_max":1667,"o":"m 555 278 l 555 555 l 1389 555 l 1389 833 l 1111 833 l 1111 1111 l 1667 1111 l 1667 278 l 555 278 m 278 555 l 278 1389 l 555 1389 l 555 555 l 278 555 m 555 1389 l 555 1667 l 1667 1667 l 1667 1389 l 555 1389 z "},"h":{"ha":1944,"x_min":278,"x_max":1667,"o":"m 278 278 l 278 1667 l 555 1667 l 555 1111 l 1389 1111 l 1389 1667 l 1667 1667 l 1667 278 l 1389 278 l 1389 833 l 555 833 l 555 278 l 278 278 z "},"i":{"ha":1944,"x_min":278,"x_max":1667,"o":"m 278 278 l 278 555 l 833 555 l 833 1389 l 278 1389 l 278 1667 l 1667 1667 l 1667 1389 l 1111 1389 l 1111 555 l 1667 555 l 1667 278 l 278 278 z "},"j":{"ha":1944,"x_min":278,"x_max":1667,"o":"m 278 278 l 278 833 l 555 833 l 555 555 l 833 555 l 833 278 l 278 278 m 833 555 l 833 1389 l 278 1389 l 278 1667 l 1667 1667 l 1667 1389 l 1111 1389 l 1111 555 l 833 555 z "},"k":{"ha":1944,"x_min":278,"x_max":1667,"o":"m 1389 278 l 1389 555 l 1667 555 l 1667 278 l 1389 278 m 1111 555 l 1111 833 l 1389 833 l 1389 555 l 1111 555 m 1111 1111 l 1111 1389 l 1389 1389 l 1389 1111 l 1111 1111 m 278 278 l 278 1667 l 555 1667 l 555 1111 l 1111 1111 l 1111 833 l 555 833 l 555 278 l 278 278 m 1389 1389 l 1389 1667 l 1667 1667 l 1667 1389 l 1389 1389 z "},"l":{"ha":1944,"x_min":278,"x_max":1667,"o":"m 278 278 l 278 1667 l 555 1667 l 555 555 l 1667 555 l 1667 278 l 278 278 z "},"m":{"ha":1944,"x_min":278,"x_max":1667,"o":"m 833 833 l 833 1111 l 1111 1111 l 1111 833 l 833 833 m 278 278 l 278 1667 l 555 1667 l 555 1389 l 833 1389 l 833 1111 l 555 1111 l 555 278 l 278 278 m 1389 278 l 1389 1111 l 1111 1111 l 1111 1389 l 1389 1389 l 1389 1667 l 1667 1667 l 1667 278 l 1389 278 z "},"n":{"ha":1944,"x_min":278,"x_max":1667,"o":"m 833 833 l 833 1111 l 1111 1111 l 1111 833 l 833 833 m 278 278 l 278 1667 l 555 1667 l 555 1389 l 833 1389 l 833 1111 l 555 1111 l 555 278 l 278 278 m 1389 278 l 1389 555 l 1111 555 l 1111 833 l 1389 833 l 1389 1667 l 1667 1667 l 1667 278 l 1389 278 z "},"o":{"ha":1944,"x_min":278,"x_max":1667,"o":"m 555 278 l 555 555 l 1389 555 l 1389 278 l 555 278 m 278 555 l 278 1389 l 555 1389 l 555 555 l 278 555 m 1389 555 l 1389 1389 l 1667 1389 l 1667 555 l 1389 555 m 555 1389 l 555 1667 l 1389 1667 l 1389 1389 l 555 1389 z "},"p":{"ha":1944,"x_min":278,"x_max":1667,"o":"m 1389 1111 l 1389 1389 l 1667 1389 l 1667 1111 l 1389 1111 m 278 278 l 278 1667 l 1389 1667 l 1389 1389 l 555 1389 l 555 1111 l 1389 1111 l 1389 833 l 555 833 l 555 278 l 278 278 z "},"q":{"ha":2222,"x_min":278,"x_max":1944,"o":"m 278 555 l 278 1389 l 555 1389 l 555 555 l 278 555 m 555 278 l 555 555 l 1389 555 l 1389 1389 l 1667 1389 l 1667 555 l 1944 555 l 1944 278 l 555 278 m 555 1389 l 555 1667 l 1389 1667 l 1389 1389 l 555 1389 z "},"r":{"ha":1944,"x_min":278,"x_max":1667,"o":"m 1389 278 l 1389 833 l 1667 833 l 1667 278 l 1389 278 m 1389 1111 l 1389 1389 l 1667 1389 l 1667 1111 l 1389 1111 m 278 278 l 278 1667 l 1389 1667 l 1389 1389 l 555 1389 l 555 1111 l 1389 1111 l 1389 833 l 555 833 l 555 278 l 278 278 z "},"s":{"ha":1944,"x_min":278,"x_max":1667,"o":"m 278 278 l 278 555 l 1389 555 l 1389 278 l 278 278 m 1389 555 l 1389 833 l 1667 833 l 1667 555 l 1389 555 m 555 833 l 555 1111 l 1389 1111 l 1389 833 l 555 833 m 278 1111 l 278 1389 l 555 1389 l 555 1111 l 278 1111 m 555 1389 l 555 1667 l 1667 1667 l 1667 1389 l 555 1389 z "},"t":{"ha":1944,"x_min":278,"x_max":1667,"o":"m 833 278 l 833 1389 l 278 1389 l 278 1667 l 1667 1667 l 1667 1389 l 1111 1389 l 1111 278 l 833 278 z "},"u":{"ha":1944,"x_min":278,"x_max":1667,"o":"m 555 278 l 555 555 l 1389 555 l 1389 278 l 555 278 m 278 555 l 278 1667 l 555 1667 l 555 555 l 278 555 m 1389 555 l 1389 1667 l 1667 1667 l 1667 555 l 1389 555 z "},"v":{"ha":1944,"x_min":278,"x_max":1667,"o":"m 833 278 l 833 555 l 1111 555 l 1111 278 l 833 278 m 555 555 l 555 833 l 833 833 l 833 555 l 555 555 m 1111 555 l 1111 833 l 1389 833 l 1389 555 l 1111 555 m 278 833 l 278 1667 l 555 1667 l 555 833 l 278 833 m 1389 833 l 1389 1667 l 1667 1667 l 1667 833 l 1389 833 z "},"w":{"ha":2500,"x_min":278,"x_max":2222,"o":"m 833 278 l 833 555 l 1111 555 l 1111 278 l 833 278 m 1389 278 l 1389 555 l 1667 555 l 1667 278 l 1389 278 m 555 555 l 555 833 l 833 833 l 833 555 l 555 555 m 1667 555 l 1667 833 l 1944 833 l 1944 555 l 1667 555 m 1111 555 l 1111 1111 l 1389 1111 l 1389 555 l 1111 555 m 278 833 l 278 1667 l 555 1667 l 555 833 l 278 833 m 1944 833 l 1944 1667 l 2222 1667 l 2222 833 l 1944 833 z "},"x":{"ha":1944,"x_min":278,"x_max":1667,"o":"m 278 278 l 278 833 l 555 833 l 555 278 l 278 278 m 1389 278 l 1389 833 l 1667 833 l 1667 278 l 1389 278 m 555 833 l 555 1111 l 1389 1111 l 1389 833 l 555 833 m 278 1111 l 278 1667 l 555 1667 l 555 1111 l 278 1111 m 1389 1111 l 1389 1667 l 1667 1667 l 1667 1111 l 1389 1111 z "},"y":{"ha":1944,"x_min":278,"x_max":1667,"o":"m 833 278 l 833 833 l 555 833 l 555 1111 l 1389 1111 l 1389 833 l 1111 833 l 1111 278 l 833 278 m 278 1111 l 278 1667 l 555 1667 l 555 1111 l 278 1111 m 1389 1111 l 1389 1667 l 1667 1667 l 1667 1111 l 1389 1111 z "},"z":{"ha":1944,"x_min":278,"x_max":1667,"o":"m 278 278 l 278 555 l 555 555 l 555 833 l 833 833 l 833 555 l 1667 555 l 1667 278 l 278 278 m 833 833 l 833 1111 l 1111 1111 l 1111 833 l 833 833 m 1111 1111 l 1111 1389 l 278 1389 l 278 1667 l 1667 1667 l 1667 1389 l 1389 1389 l 1389 1111 l 1111 1111 z "},"{":{"ha":1111,"x_min":278,"x_max":833,"o":"m 555 0 l 555 278 l 833 278 l 833 0 l 555 0 m 278 278 l 278 833 l 555 833 l 555 278 l 278 278 m 555 833 l 555 1111 l 833 1111 l 833 833 l 555 833 m 278 1111 l 278 1667 l 555 1667 l 555 1111 l 278 1111 m 555 1667 l 555 1944 l 833 1944 l 833 1667 l 555 1667 z "},"}":{"ha":1111,"x_min":278,"x_max":833,"o":"m 278 0 l 278 278 l 555 278 l 555 0 l 278 0 m 555 278 l 555 833 l 833 833 l 833 278 l 555 278 m 278 833 l 278 1111 l 555 1111 l 555 833 l 278 833 m 555 1111 l 555 1667 l 833 1667 l 833 1111 l 555 1111 m 278 1667 l 278 1944 l 555 1944 l 555 1667 l 278 1667 z "},"~":{"ha":1667,"x_min":278,"x_max":1389,"o":"m 278 555 l 278 833 l 555 833 l 555 555 l 278 555 m 833 555 l 833 833 l 1111 833 l 1111 555 l 833 555 m 555 833 l 555 1111 l 833 1111 l 833 833 l 555 833 m 1111 833 l 1111 1111 l 1389 1111 l 1389 833 l 1111 833 z "},"¢":{"ha":1389,"x_min":278,"x_max":1111,"o":"m 555 278 l 555 555 l 278 555 l 278 1667 l 555 1667 l 555 1944 l 833 1944 l 833 1667 l 1111 1667 l 1111 1389 l 555 1389 l 555 833 l 1111 833 l 1111 555 l 833 555 l 833 278 l 555 278 z "},"£":{"ha":1944,"x_min":0,"x_max":1667,"o":"m 278 278 l 278 1111 l 0 1111 l 0 1389 l 278 1389 l 278 1667 l 555 1667 l 555 1389 l 1111 1389 l 1111 1111 l 555 1111 l 555 555 l 1667 555 l 1667 278 l 278 278 m 1389 1389 l 1389 1667 l 1667 1667 l 1667 1389 l 1389 1389 m 555 1667 l 555 1944 l 1389 1944 l 1389 1667 l 555 1667 z "},"¥":{"ha":1944,"x_min":278,"x_max":1667,"o":"m 833 278 l 833 555 l 555 555 l 555 833 l 833 833 l 833 1111 l 555 1111 l 555 1389 l 1389 1389 l 1389 1111 l 1111 1111 l 1111 833 l 1389 833 l 1389 555 l 1111 555 l 1111 278 l 833 278 m 278 1389 l 278 1944 l 555 1944 l 555 1389 l 278 1389 m 1389 1389 l 1389 1944 l 1667 1944 l 1667 1389 l 1389 1389 z "},"¦":{"ha":833,"x_min":278,"x_max":555,"o":"m 278 0 l 278 833 l 555 833 l 555 0 l 278 0 m 278 1389 l 278 2222 l 555 2222 l 555 1389 l 278 1389 z "},"©":{"ha":2500,"x_min":278,"x_max":2222,"o":"m 555 278 l 555 555 l 1111 555 l 1111 833 l 1667 833 l 1667 555 l 1944 555 l 1944 278 l 555 278 m 833 833 l 833 1389 l 1111 1389 l 1111 833 l 833 833 m 278 555 l 278 1667 l 555 1667 l 555 555 l 278 555 m 1944 555 l 1944 1667 l 2222 1667 l 2222 555 l 1944 555 m 1111 1389 l 1111 1667 l 555 1667 l 555 1944 l 1944 1944 l 1944 1667 l 1667 1667 l 1667 1389 l 1111 1389 z "},"¬":{"ha":1944,"x_min":278,"x_max":1667,"o":"m 1389 555 l 1389 1111 l 278 1111 l 278 1389 l 1667 1389 l 1667 555 l 1389 555 z "},"®":{"ha":2500,"x_min":278,"x_max":2222,"o":"m 1389 1111 l 1389 1389 l 1667 1389 l 1667 1111 l 1389 1111 m 278 555 l 278 1667 l 555 1667 l 555 555 l 278 555 m 1944 555 l 1944 1667 l 2222 1667 l 2222 555 l 1944 555 m 555 278 l 555 555 l 833 555 l 833 1667 l 555 1667 l 555 1944 l 1944 1944 l 1944 1667 l 1389 1667 l 1389 1389 l 1111 1389 l 1111 1111 l 1389 1111 l 1389 833 l 1111 833 l 1111 555 l 1389 555 l 1389 833 l 1667 833 l 1667 555 l 1944 555 l 1944 278 l 555 278 z "},"±":{"ha":1944,"x_min":278,"x_max":1667,"o":"m 278 278 l 278 555 l 833 555 l 833 1111 l 278 1111 l 278 1389 l 833 1389 l 833 1944 l 1111 1944 l 1111 1389 l 1667 1389 l 1667 1111 l 1111 1111 l 1111 555 l 1667 555 l 1667 278 l 278 278 z "},"¶":{"ha":1944,"x_min":278,"x_max":1667,"o":"m 833 278 l 833 1111 l 555 1111 l 555 1389 l 278 1389 l 278 1667 l 555 1667 l 555 1944 l 1667 1944 l 1667 278 l 1389 278 l 1389 1667 l 1111 1667 l 1111 278 l 833 278 z "},"¹":{"ha":1111,"x_min":278,"x_max":833,"o":"m 555 1111 l 555 1667 l 278 1667 l 278 1944 l 555 1944 l 555 2222 l 833 2222 l 833 1111 l 555 1111 z "},"×":{"ha":1944,"x_min":278,"x_max":1667,"o":"m 278 278 l 278 833 l 555 833 l 555 278 l 278 278 m 1389 278 l 1389 833 l 1667 833 l 1667 278 l 1389 278 m 555 833 l 555 1111 l 1389 1111 l 1389 833 l 555 833 m 278 1111 l 278 1667 l 555 1667 l 555 1111 l 278 1111 m 1389 1111 l 1389 1667 l 1667 1667 l 1667 1111 l 1389 1111 z "},"÷":{"ha":1944,"x_min":278,"x_max":1667,"o":"m 833 278 l 833 555 l 1111 555 l 1111 278 l 833 278 m 278 833 l 278 1111 l 1667 1111 l 1667 833 l 278 833 m 833 1389 l 833 1667 l 1111 1667 l 1111 1389 l 833 1389 z "},"—":{"ha":2777,"x_min":278,"x_max":2500,"o":"m 278 833 l 278 1111 l 2500 1111 l 2500 833 l 278 833 z "},"†":{"ha":1389,"x_min":278,"x_max":1111,"o":"m 555 278 l 555 1389 l 278 1389 l 278 1667 l 555 1667 l 555 1944 l 833 1944 l 833 1667 l 1111 1667 l 1111 1389 l 833 1389 l 833 278 l 555 278 z "},"•":{"ha":1111,"x_min":278,"x_max":833,"o":"m 278 833 l 278 1389 l 833 1389 l 833 833 l 278 833 z "},"…":{"ha":1944,"x_min":278,"x_max":1667,"o":"m 278 278 l 278 555 l 555 555 l 555 278 l 278 278 m 833 278 l 833 555 l 1111 555 l 1111 278 l 833 278 m 1389 278 l 1389 555 l 1667 555 l 1667 278 l 1389 278 z "},"€":{"ha":1944,"x_min":0,"x_max":1667,"o":"m 555 278 l 555 555 l 1667 555 l 1667 278 l 555 278 m 278 555 l 278 833 l 0 833 l 0 1389 l 278 1389 l 278 1667 l 555 1667 l 555 1389 l 1111 1389 l 1111 833 l 555 833 l 555 555 l 278 555 m 555 1667 l 555 1944 l 1667 1944 l 1667 1667 l 555 1667 z "},"™":{"ha":2777,"x_min":278,"x_max":2500,"o":"m 1111 1111 l 1111 1667 l 1389 1667 l 1389 1111 l 1111 1111 m 1667 1389 l 1667 1667 l 1944 1667 l 1944 1389 l 1667 1389 m 2222 1111 l 2222 1667 l 2500 1667 l 2500 1111 l 2222 1111 m 555 1111 l 555 1667 l 278 1667 l 278 1944 l 1111 1944 l 1111 1667 l 833 1667 l 833 1111 l 555 1111 m 1389 1667 l 1389 1944 l 1667 1944 l 1667 1667 l 1389 1667 m 1944 1667 l 1944 1944 l 2222 1944 l 2222 1667 l 1944 1667 z "}}}
